<svg width="26" height="21" viewBox="0 0 26 21" fill="none" xmlns="http://www.w3.org/2000/svg">
<path d="M15.3689 19.5874L23.5825 11.4366C24.3349 10.6854 24.3349 9.46622 23.5825 8.71759L15.3689 0.561974C14.6102 -0.189168 13.3821 -0.185399 12.6235 0.561974C11.8723 1.31437 11.8723 2.52857 12.6235 3.28096L17.4286 8.04839L2.0144 8.04839C0.900899 8.04839 1.33514e-05 8.94802 1.33514e-05 10.0615C1.33514e-05 11.1738 0.900899 12.0747 2.0144 12.0747L17.4576 12.0747L12.6235 16.8672C11.8723 17.6184 11.8723 18.8338 12.6235 19.5849C13.3809 20.3373 14.6089 20.3385 15.3689 19.5874Z" fill="white"/>
<path d="M16.2864 20.0254L24.5 11.8746C25.2524 11.1235 25.2524 9.90425 24.5 9.15562L16.2864 1.00001C15.5277 0.248865 14.2997 0.252633 13.541 1.00001C12.7899 1.7524 12.7899 2.9666 13.541 3.719L18.3462 8.48642L2.93197 8.48642C1.81847 8.48642 0.917583 9.38605 0.917583 10.4996C0.917583 11.6118 1.81847 12.5127 2.93197 12.5127L18.3751 12.5127L13.541 17.3052C12.7899 18.0564 12.7899 19.2718 13.541 20.023C14.2985 20.7754 15.5265 20.7765 16.2864 20.0254Z" fill="white"/>
</svg>
